<?xml version="1.0" encoding="utf-8"?>
<!-- Generator: Adobe Illustrator 27.2.0, SVG Export Plug-In . SVG Version: 6.00 Build 0)  -->
<svg version="1.1" id="Livello_1" xmlns="http://www.w3.org/2000/svg" xmlns:xlink="http://www.w3.org/1999/xlink" x="0px" y="0px"
	 viewBox="0 0 595.3 595.3" style="enable-background:new 0 0 595.3 595.3;" xml:space="preserve">
<style type="text/css">
	.st0{fill:#222165;}
	.st1{fill:#FFFFFF;}
</style>
<g>
	<path class="st0" d="M73.6,288.9h6.3c0,11.6,0,23.2-1,34.6l0.9,1.1c16.2-1.3,30.3-1.4,44.6,0l0.9-1.1c-1-12-1-23.3-1-34.6h6.2v76.5
		h-6.2c0-11.6,0-22.7,1-35.7l-1-1.1c-14.4,2-28.2,2-44.5,0l-0.9,1.1c1,12.5,1,23.8,1,35.7h-6.3V288.9z"/>
	<path class="st0" d="M172.5,288.9h6.8l30.4,76.5h-6.5c-3.8-9-7.2-17.4-9.8-27l-0.9-0.9c-14.9,1.6-18.7,1.7-32.8,0l-1,1
		c-2.6,8.4-6.4,18-10,26.9h-6.6L172.5,288.9z M161.5,333.4c11.6-1.5,17.1-1.7,28.5,0l0.6-0.9c-5.5-12.4-10.1-23.9-13.6-36.8h-2.2
		c-3.7,12.8-8.5,24.8-13.9,36.7L161.5,333.4z"/>
	<path class="st0" d="M221.3,288.9h6.5c11.3,22.3,21.8,45.1,30.9,68.1h1.2c8.8-21.4,20.3-46.6,30.9-68.1h6.5v76.5h-6.3
		c0-19.9-0.5-41.8,1.7-65.1h-1c-9.4,21.4-11.2,25.2-29.3,65.1h-5.8c-8.5-18.5-18.5-40.4-29.3-65.1h-1.1c2.2,23.4,1.7,46.3,1.7,65.1
		h-6.3V288.9z"/>
	<path class="st0" d="M312.4,327.2c0-23.1,16.8-39.9,37.5-39.9c21,0,37.4,17.6,37.4,39.9c0,22.7-16.7,39.8-37.5,39.8
		C329.4,367.1,312.4,350.3,312.4,327.2z M350,360.5c16.3,0,30.5-14,30.5-33.3s-14.1-33.4-30.5-33.4c-16.5,0-30.9,14-30.9,33.4
		C319.1,346.5,333.5,360.5,350,360.5z"/>
	<path class="st0" d="M422.3,288.9h6.8l30.4,76.5h-6.5c-3.8-9-7.2-17.4-9.8-27l-0.9-0.9c-14.9,1.6-18.7,1.7-32.8,0l-1,1
		c-2.6,8.4-6.4,18-10,26.9h-6.6L422.3,288.9z M411.3,333.4c11.6-1.5,17.1-1.7,28.5,0l0.6-0.9c-5.5-12.4-10.1-23.9-13.6-36.8h-2.2
		c-3.7,12.8-8.5,24.8-13.9,36.7L411.3,333.4z"/>
	<path class="st0" d="M471.1,288.9h5.7c16.5,22.1,31.2,43,46.8,66.8h1.1c-1.5-23.2-1.4-47.1-1.4-66.8h6.2v76.5h-5.7
		c-14.5-19.5-31.2-42.2-46.7-65.7h-1.1c1.5,23,1.4,42.3,1.4,65.7h-6.3V288.9z"/>
</g>
<rect x="262.5" y="174.5" class="st0" width="76.1" height="76.1"/>
<path class="st1" d="M293,185.5l-13.5,28.3h-17.1v2.3h16l-7.3,15.3h2.2l7.3-15.3h10.5l-7.3,15.3h2.2l7.3-15.3h7.2h4.7l7.3,15.3h2.3
	L293,185.5z M299.5,213.9h-5l2.4-5.1l-1.1-2.3l-3.5,7.4h-10.6l11.3-23.6l11.2,23.6H299.5z"/>
<polygon class="st1" points="338.6,213.9 319.3,213.9 305.8,185.5 302.1,193.5 303.2,195.8 305.8,190.3 317,213.9 316.8,213.9 
	316.8,213.9 312,213.9 313.1,216.2 316.8,216.2 318.2,216.2 325.5,231.5 327.8,231.5 320.5,216.2 338.6,216.2 "/>
</svg>
